Mastitorrents.com 
http://mastitorrents.com/forums/index.php


General
Name                             : Be Dune Saade Char
Format                           : MPEG-4
Format profile                   : Base Media
Codec ID                         : isom
File size                        : 696 MiB
Duration                         : 2h 12mn
Overall bit rate                 : 736 Kbps


Video
ID                               : 1
Format                           : AVC
Format/Info                      : Advanced Video Codec
Format profile                   : High@L4.1
Format settings, CABAC           : Yes
Format settings, ReFrames        : 3 frames
Codec ID                         : avc1
Codec ID/Info                    : Advanced Video Coding
Duration                         : 2h 12mn
Bit rate mode                    : Variable
Bit rate                         : 670 Kbps
Maximum bit rate                 : 2 035 Kbps
Width                            : 608 pixels
Height                           : 256 pixels
Display aspect ratio             : 2.35:1
Frame rate mode                  : Constant
Frame rate                       : 29.970 fps
Resolution                       : 8 bits
Colorimetry                      : 4:2:0
Scan type                        : Progressive
Bits/(Pixel*Frame)               : 0.144
Stream size                      : 632 MiB (91%)
Title                            : Imported with GPAC 0.4.6-DEV (build 1)
Writing library                  : x264 core 80 r1376M 3feaec2


Audio
ID                               : 2
Format                           : AAC
Format/Info                      : Advanced Audio Codec
Format version                   : Version 4
Format profile                   : LC
Format settings, SBR             : Yes
Format settings, PS              : No
Codec ID                         : 40
Duration                         : 2h 12mn
Bit rate mode                    : Variable
Bit rate                         : 64.0 Kbps
Maximum bit rate                 : 73.0 Kbps
Channel(s)                       : 2 channels
Channel positions                : Front: L R
Sampling rate                    : 44.1 KHz
Stream size                      : 60.6 MiB (9%)


Source                           : DVD 9